<?xml version="1.0" standalone="no"?>
<!DOCTYPE svg PUBLIC "-//W3C//DTD SVG 20010904//EN"
 "http://www.w3.org/TR/2001/REC-SVG-20010904/DTD/svg10.dtd">
<svg version="1.0" xmlns="http://www.w3.org/2000/svg"
 width="1085.000000pt" height="69.000000pt" viewBox="0 0 1085.000000 69.000000"
 preserveAspectRatio="xMidYMid meet">
<metadata>
Created by potrace 1.16, written by Peter Selinger 2001-2019
</metadata>
<g transform="translate(0.000000,69.000000) scale(0.100000,-0.100000)"
fill="#000000" stroke="none">
<path d="M140 575 c-37 -39 -30 -91 30 -227 49 -113 59 -159 41 -187 -14 -22
-28 -5 -35 44 -11 72 -56 54 -56 -22 0 -57 26 -83 80 -83 98 0 108 94 26 267
-33 72 -46 112 -44 135 4 44 33 50 41 8 7 -35 31 -40 47 -9 40 74 -71 137
-130 74z"/>
<path d="M1818 592 l-48 -3 0 -245 0 -245 66 3 c50 2 70 7 78 20 14 22 6 29
-43 35 l-41 6 0 78 c0 75 1 78 28 91 15 7 28 23 30 36 3 19 -1 22 -32 22 l-36
0 0 75 0 75 33 0 c34 0 57 15 57 36 0 15 -31 20 -92 16z"/>
<path d="M2190 350 l0 -250 63 0 c55 0 67 3 87 25 l23 25 -49 0 c-27 0 -55 4
-61 8 -9 6 -13 65 -15 216 -3 206 -3 209 -25 217 l-23 8 0 -249z"/>
<path d="M3418 592 l-48 -3 0 -245 0 -245 66 3 c50 2 70 7 78 20 14 22 6 29
-43 35 l-41 6 0 78 c0 75 1 78 28 91 15 7 28 23 30 36 3 19 -1 22 -32 22 l-36
0 0 75 0 75 33 0 c34 0 57 15 57 36 0 15 -31 20 -92 16z"/>
<path d="M4205 586 c-12 -9 -20 -30 -23 -69 -4 -50 1 -66 47 -172 39 -86 51
-126 49 -153 -5 -56 -31 -49 -41 10 -14 72 -57 59 -57 -17 0 -62 21 -85 79
-85 65 0 76 15 75 104 0 64 -5 81 -48 166 -34 69 -46 104 -44 130 4 46 33 54
41 10 10 -49 57 -33 57 20 0 56 -86 92 -135 56z"/>
<path d="M4668 592 l-48 -3 0 -245 0 -245 66 3 c50 2 70 7 78 20 14 22 6 29
-43 35 l-41 6 0 78 c0 75 1 78 28 91 15 7 28 23 30 36 3 19 -1 22 -32 22 l-36
0 0 75 0 75 33 0 c34 0 57 15 57 36 0 15 -31 20 -92 16z"/>
<path d="M5048 589 c-16 -9 -18 -31 -18 -237 0 -164 3 -231 12 -240 16 -16 90
-15 111 1 18 13 40 117 30 143 -3 8 -15 14 -27 12 -17 -2 -23 -14 -31 -58 -7
-37 -15 -55 -25 -55 -13 0 -15 31 -18 193 -2 181 -1 193 15 190 14 -2 21 -19
28 -64 10 -61 10 -61 33 -47 19 13 22 24 22 74 0 46 -5 64 -20 79 -22 22 -82
27 -112 9z"/>
<path d="M6290 350 l0 -248 25 -4 25 -5 0 247 0 248 -25 4 -25 5 0 -247z"/>
<path d="M8238 592 l-48 -3 0 -245 0 -245 66 3 c50 2 70 7 78 20 14 22 6 29
-43 35 l-41 6 0 78 c0 75 1 78 28 91 15 7 28 23 30 36 3 19 -1 22 -32 22 l-36
0 0 75 0 75 33 0 c34 0 57 15 57 36 0 15 -31 20 -92 16z"/>
<path d="M9460 350 l0 -248 25 -4 25 -5 0 247 0 248 -25 4 -25 5 0 -247z"/>
<path d="M10600 350 l0 -250 63 0 c55 0 67 3 87 25 l23 25 -49 0 c-27 0 -55 4
-61 8 -9 6 -13 65 -15 216 -3 206 -3 209 -25 217 l-23 8 0 -249z"/>
<path d="M542 373 c-40 -268 -40 -273 -7 -273 30 0 31 5 54 177 l17 128 18
-139 c9 -76 20 -144 23 -152 3 -8 16 -14 29 -14 31 0 31 -1 -8 268 l-32 222
-31 0 -31 0 -32 -217z"/>
<path d="M920 345 l0 -245 54 0 c81 0 95 17 97 110 5 186 -1 353 -12 366 -8 9
-33 14 -75 14 l-64 0 0 -245z"/>
<path d="M1330 345 l0 -245 24 0 c23 0 24 3 31 100 5 77 10 100 21 100 19 0
21 -9 29 -112 6 -78 9 -88 26 -88 18 0 19 10 19 226 0 136 -4 233 -10 245 -9
16 -22 19 -75 19 l-65 0 0 -245z"/>
<path d="M2552 363 c-18 -126 -33 -236 -32 -245 0 -12 8 -18 25 -18 30 0 31 4
54 177 l17 128 19 -152 19 -153 28 0 c36 0 36 1 -4 273 l-32 217 -31 0 -31 0
-32 -227z"/>
<path d="M2944 577 c-2 -7 -3 -116 -2 -242 3 -225 3 -230 24 -233 18 -3 22 4
27 35 4 21 7 58 8 83 l0 45 15 -40 c43 -122 45 -125 70 -125 32 0 31 12 -15
150 l-38 116 34 99 c18 55 33 105 33 112 0 7 -11 13 -24 13 -20 0 -28 -10 -49
-62 -23 -55 -26 -59 -27 -32 0 62 -11 94 -32 94 -10 0 -21 -6 -24 -13z"/>
<path d="M5430 362 c0 -209 2 -230 18 -245 24 -21 90 -22 120 -1 22 15 22 19
22 245 l0 229 -24 0 -23 0 -8 -209 c-4 -114 -11 -214 -15 -221 -21 -33 -28 14
-35 215 l-7 215 -24 0 -24 0 0 -228z"/>
<path d="M5850 345 l0 -245 24 0 c23 0 24 3 31 101 6 86 9 100 23 97 14 -3 19
-22 26 -101 7 -85 11 -97 27 -97 18 0 19 12 19 226 0 136 -4 233 -10 245 -9
16 -22 19 -75 19 l-65 0 0 -245z"/>
<path d="M6565 580 c-11 -18 5 -30 41 -30 l34 0 0 -215 c0 -214 0 -216 23
-224 l22 -8 7 156 c14 307 8 274 48 287 19 6 36 19 38 28 3 14 -10 16 -102 16
-59 0 -108 -4 -111 -10z"/>
<path d="M6970 576 c0 -7 9 -58 20 -112 11 -55 26 -158 33 -229 11 -119 14
-130 32 -130 19 0 21 11 32 143 6 79 19 177 27 219 22 102 21 123 -4 123 -24
0 -36 -27 -46 -101 -8 -58 -18 -49 -29 25 -3 27 -9 55 -12 62 -7 18 -53 18
-53 0z"/>
<path d="M7745 580 c-11 -18 5 -30 41 -30 l34 0 0 -215 c0 -214 0 -216 23
-224 l22 -8 7 156 c14 307 8 274 48 287 19 6 36 19 38 28 3 14 -10 16 -102 16
-59 0 -108 -4 -111 -10z"/>
<path d="M8590 345 l0 -245 24 0 c23 0 24 3 31 101 6 86 9 100 23 97 14 -3 19
-22 26 -101 7 -85 11 -97 27 -97 18 0 19 12 19 226 0 136 -4 233 -10 245 -9
16 -22 19 -75 19 l-65 0 0 -245z"/>
<path d="M8980 340 l0 -249 23 8 c12 4 23 17 24 27 14 133 15 140 26 109 22
-68 50 -67 71 4 l15 46 0 -55 c1 -30 4 -72 7 -93 6 -31 11 -37 30 -37 l24 0 0
229 c0 126 -3 236 -6 245 -10 25 -43 19 -54 -9 -5 -14 -17 -67 -26 -118 -9
-50 -20 -95 -23 -99 -4 -5 -15 31 -25 80 -29 145 -36 162 -63 162 l-23 0 0
-250z"/>
<path d="M9780 358 c0 -128 4 -239 9 -247 5 -8 16 -11 25 -8 12 5 16 20 17 59
0 29 3 71 7 93 7 39 8 38 26 -47 18 -87 25 -99 59 -111 16 -6 17 10 17 243 l0
250 -30 0 -30 0 -1 -92 -1 -93 -18 83 c-23 99 -24 102 -56 102 l-24 0 0 -232z"/>
<path d="M10200 351 c-19 -132 -32 -242 -30 -244 3 -3 16 -7 30 -9 24 -3 24
-2 42 132 10 74 19 142 21 150 1 8 11 -41 20 -110 24 -169 25 -170 53 -170 21
0 24 5 24 33 0 34 -57 422 -65 445 -2 6 -17 12 -33 12 l-28 0 -34 -239z"/>
</g>
</svg>
